<svg width="240" height="240.004" viewBox="0 0 63.5 63.501" xmlns="http://www.w3.org/2000/svg"><rect style="fill:#30734c;fill-opacity:1;stroke-width:.280731;paint-order:stroke fill markers" width="63.5" height="63.5" ry="5.817"/><g transform="matrix(.81411 0 0 .81411 -5.149 -1.387)" style="stroke-width:1.02361"><circle style="fill:#fff;fill-opacity:1;stroke:none;stroke-width:15.3541;stroke-linecap:round;stroke-dasharray:none;paint-order:markers fill stroke" cx="-33.204" cy="52.824" r="7.5" transform="rotate(-90)"/><g style="stroke-width:1.02361"><path style="color:#000;fill:#fff;fill-opacity:1;stroke-width:1.02361;stroke-linecap:round;-inkscape-stroke:none;paint-order:markers fill stroke" d="M52.824 8.204c-13.718 0-25 11.281-25 25l.001.082v39.918h15V33.286h.001v-.082h-.002c0-5.612 4.389-10 10-10 5.612 0 10 4.388 10 10 0 5.611-4.388 10-10 10h-7.5v15h7.5c13.719 0 25-11.282 25-25 0-13.719-11.282-25-25-25z"/><path style="color:#000;fill:#fdfefd;fill-opacity:1;fill-rule:evenodd;stroke-width:1.0236;-inkscape-stroke:none" d="M12.825 58.204h12.749v-15H12.825Z"/></g></g></svg>