<?xml version="1.0" encoding="UTF-8"?>
<!-- Created with Inkscape (http://www.inkscape.org/) -->
<svg width="4331.3" height="2713.7" version="1.1" viewBox="0 0 1146 718" xmlns="http://www.w3.org/2000/svg">
 <g fill="none" stroke="#fff">
  <path d="m-0.52917 355.6c8.7039-5.3045 18.384-9.001 28.409-10.848 6.3613-1.1719 12.936-1.5988 19.289-0.38484 11.087 2.1185 20.583 8.984 30.883 13.601 6.2097 2.7834 12.746 4.7582 19.109 7.1689 11.533 4.369 22.977 10.276 35.31 10.19 5.0576-0.0351 10.151-1.1256 14.604-3.5241 2.5306-1.3631 4.8825-3.1869 6.4141-5.6192 1.1208-1.7799 1.7676-3.8368 2.0098-5.9262s0.0884-4.2126-0.31077-6.2777c-0.96921-5.0142-3.3655-9.665-6.336-13.819-2.9706-4.1541-6.5163-7.8584-10.046-11.549-9.5552-9.9921-19.109-20.026-27.556-30.971-5.7935-7.5068-11.136-15.604-13.659-24.745-2.7165-9.8421-1.9988-20.337 0-30.35 1.4524-7.2756 3.5643-14.409 4.9668-21.694 1.1262-5.8503 1.7913-11.78 2.8467-17.644 1.2211-6.7837 2.9879-13.535 6.1359-19.667 6.34-12.35 17.676-21.192 27.531-30.968 4.1964-4.163 8.2974-8.6473 13.628-11.203 2.5715-1.2328 5.3603-1.9753 8.1836-2.377 8.0456-1.1449 16.212 0.44613 24.126 2.2927 11.339 2.6458 22.599 5.8398 34.171 7.1302 14.408 1.6066 28.955 0.22705 43.446-0.21092 8.5915-0.25968 17.251-0.1932 25.69-1.8252s16.792-5.1387 22.605-11.47c3.6922-4.0205 6.192-8.9755 9.472-13.339 1.4212-1.8906 3.0058-3.6851 4.9135-5.0831 1.9078-1.3981 4.1639-2.3872 6.5245-2.5346 2.1535-0.13444 4.2965 0.4302 6.3016 1.227 2.0052 0.79677 3.9094 1.8262 5.8901 2.6819 10.415 4.4993 22.19 3.957 33.492 4.9463 9.3343 0.81707 18.646 2.7581 27.176 6.6356 8.689 3.9498 16.355 9.799 24.57 14.659 4.1996 2.4849 8.5735 4.7247 13.22 6.2154 4.6464 1.4907 9.5884 2.2166 14.434 1.6394 6.9759-0.83102 13.32-4.266 19.736-7.1275 18.272-8.1492 38.331-12.001 56.085-21.224 12.36-6.4209 23.315-15.317 33.037-25.291 6.2032-6.364 12.036-13.268 19.524-18.055 8.9708-5.7339 19.89-8.0435 30.523-7.4989 8.3651 0.42843 16.612 2.5432 24.987 2.4726 13.533-0.11397 26.3-5.8787 38.56-11.609 12.26-5.7305 24.92-11.648 38.446-12.099 9.9762-0.33331 19.769 2.3407 29.546 4.3514 6.4288 1.3221 13.002 2.3675 19.537 1.7569 7.9727-0.74493 15.666-4.0025 21.867-9.0697 1.8541-1.5153 3.5792-3.1877 5.4903-4.6304s4.0494-2.6662 6.4003-3.121c2.4546-0.47485 5.033-0.07749 7.3392 0.88781 2.3062 0.9653 4.3543 2.478 6.145 4.2226 3.7574 3.6608 6.4153 8.3387 8.2338 13.259s2.8333 10.1 3.6421 15.283c1.1507 7.3747 1.9 14.852 1.4307 22.301-0.37185 5.9028-1.506 11.745-1.7177 17.655-0.12066 3.3679 0.0729 6.8117 1.275 9.96 0.6011 1.5742 1.4541 3.0604 2.5801 4.314 1.126 1.2536 2.5297 2.2702 4.1063 2.865 2.4413 0.92114 5.1894 0.79143 7.6897 0.0449 2.5002-0.74657 4.7864-2.0756 6.9547-3.5271 11.119-7.4432 19.63-18.249 30.591-25.923 11.785-8.2514 25.822-12.503 38.919-18.456 16.709-7.5939 31.985-18.019 46.512-29.235 11.226-8.667 22.094-17.861 34.104-25.404 8.7048-5.467 17.978-10.046 26.296-16.086 5.516-4.0054 10.579-8.6347 15.06-13.771" stroke-opacity=".054976" stroke-width="2.1167"/>
  <path transform="scale(.26458)" d="m3572.6 1172c-1.8522-0.0362-3.7144 0.1802-5.5254 0.5801-5.7953 1.2799-11 4.3579-16.279 7.0703-16.655 8.5578-34.856 13.769-51.582 22.186-8.4825 4.2686-16.647 9.4237-23.164 16.33-6.5174 6.9063-11.314 15.71-12.211 25.164-0.7782 8.2052 1.4082 16.508 5.1875 23.832 3.7794 7.3243 9.0952 13.751 14.82 19.68 11.108 11.504 23.908 21.351 37.772 29.322 17.07 9.8155 35.617 16.746 53.379 25.244 5.7291 2.7412 11.44 5.6699 17.611 7.17 3.0856 0.75 6.2763 1.1341 9.4453 0.9297 3.1689-0.2045 6.3186-1.009 9.1054-2.5313 3.7413-2.0436 6.7144-5.3219 8.8497-9.0117 2.1352-3.6898 3.4773-7.788 4.4628-11.936 1.807-7.6045 2.4576-15.572 1.0235-23.256-2.3891-12.8-10.27-23.785-17.824-34.391-6.4733-9.0881-12.899-18.311-17.43-28.508-4.5306-10.196-7.0983-21.53-5.4844-32.57 0.7765-5.3118 2.5012-10.469 3.0176-15.812 0.2582-2.6717 0.2065-5.3924-0.4141-8.0039-0.6206-2.6114-1.8316-5.1133-3.6933-7.0469-2.0583-2.1376-4.8464-3.5043-7.7559-4.0878-1.0911-0.2189-2.1992-0.3318-3.3105-0.3536z" stroke-opacity=".054975" stroke-width="8"/>
  <g stroke-opacity=".054976" stroke-width="2.1167">
   <path d="m784.82-5.4998c8.7886 7.1167 19.356 12.019 30.466 14.132 5.0524 0.96104 10.218 1.3574 15.186 2.6858 4.9685 1.3285 9.8664 3.7328 12.944 7.8535 1.9357 2.5917 3.0407 5.7108 3.8159 8.8514s1.2484 6.3512 2.0738 9.4789c2.0632 7.8183 6.2894 14.986 7.8562 22.919 0.61376 3.1075 0.82886 6.3575 2.211 9.2076 0.69107 1.425 1.6825 2.7304 2.9921 3.6211 1.3096 0.89066 2.9552 1.3373 4.5113 1.0425 1.2422-0.23539 2.3546-0.9147 3.3694-1.6688 1.0149-0.75405 1.9685-1.5981 3.058-2.2396 1.9367-1.1403 4.2044-1.5826 6.4414-1.799s4.4962-0.22625 6.7141-0.5894c5.1805-0.84824 9.963-3.6499 13.493-7.5354 3.5299-3.8855 5.8342-8.8096 6.896-13.951 0.80613-3.903 0.91685-7.9117 1.3806-11.87 0.46378-3.9583 1.3206-7.9714 3.4439-11.344 2.7779-4.4125 7.4318-7.2835 12.143-9.5184 7.0848-3.361 14.742-5.6515 22.571-6.0872 8.9233-0.49655 17.916 1.4072 26.776 0.2326 7.25-0.96122 14.209-4.0217 19.818-8.7153"/>
   <path d="m1098-0.52917c-0.6056 1.8844-1.6764 3.6175-3.0908 5.0022-2.1669 2.1215-5.095 3.3811-8.0994 3.7927-3.2318 0.44283-6.5151-0.049538-9.7181-0.66749-3.203-0.61795-6.4054-1.3653-9.6667-1.4364-5.4353-0.11853-10.751 1.6518-15.663 3.9813-4.6094 2.186-9.0566 4.9504-12.326 8.8668-2.8967 3.4703-4.8188 7.7801-8.2684 10.701-2.7693 2.3452-6.2863 3.5874-9.7475 4.6778-6.2771 1.9775-12.763 3.6615-18.325 7.1803-6.2402 3.9481-10.885 9.9362-15.113 15.99-5.975 8.5557-11.395 17.502-17.699 25.818-6.304 8.3163-13.593 16.07-22.517 21.479-12.18 7.383-26.568 9.9538-40.067 14.496-5.2996 1.7831-10.524 3.8997-15.255 6.8793-4.7053 2.9631-8.8427 6.7266-13.15 10.244-5.9166 4.8318-12.201 9.2358-17.719 14.518-5.5183 5.2821-10.319 11.599-12.397 18.95-1.7246 6.1007-1.4901 12.56-1.2429 18.895 0.48975 12.551 0.91539 25.496-3.507 37.253-3.5705 9.492-10.374 17.842-19.26 22.729-2.8868 1.5879-5.9899 2.8159-9.2286 3.4209s-6.618 0.57471-9.7953-0.29684c-3.7749-1.0355-7.134-3.2055-10.271-5.5471-3.1367-2.3416-6.1341-4.8956-9.5164-6.866-2.7736-1.6158-5.7672-2.8159-8.6159-4.2951-2.8488-1.4792-5.6087-3.29-7.5548-5.8427-1.4831-1.9454-2.4326-4.2424-3.215-6.5602-0.78235-2.3178-1.4157-4.6894-2.3507-6.9499-2.8007-6.7707-8.1694-12.235-10.962-19.009-3.1924-7.7422-2.7368-16.509-1.2022-24.742 1.211-6.4968 3.0672-12.893 5.8334-18.895 5.3116-11.525 13.796-21.255 22.441-30.545 5.9463-6.3891 12.068-12.709 16.731-20.087 2.2831-3.6123 4.2376-7.592 4.501-11.857 0.0905-1.4654-0.0263-2.9623-0.53207-4.3406-0.50583-1.3783-1.4251-2.6338-2.6921-3.3757-1.1547-0.67614-2.5584-0.89459-3.8756-0.65916-1.3172 0.23543-2.5425 0.91313-3.4855 1.8624-0.87751 0.88333-1.5109 1.9874-1.9581 3.1494-0.44713 1.1621-0.71484 2.3852-0.9297 3.6116-0.42972 2.4529-0.6693 4.9907-1.7488 7.2347-1.4865 3.09-4.5713 5.3401-7.9584 5.8746-3.3665 0.53123-6.7902-0.54185-9.8624-2.0173-3.0723-1.4754-5.9456-3.3642-9.1078-4.6354-5.0989-2.0496-10.712-2.4014-16.208-2.375-9.3148 0.04472-18.869 1.1796-27.126 5.4911-2.7171 1.4188-5.2512 3.1598-7.8929 4.7146-2.6417 1.5547-5.4331 2.938-8.437 3.5481-5.5098 1.1192-11.178-0.44376-16.543-2.1249-15.392-4.8232-30.455-10.739-46.087-14.718-6.0846-1.5486-12.275-2.8043-18.547-3.089s-12.652 0.42726-18.502 2.7052c-8.5862 3.3429-15.567 9.8443-21.561 16.842-9.2767 10.83-16.739 23.226-21.842 36.542-0.52117 1.3599-1.0208 2.7355-1.729 4.008-0.70829 1.2725-1.6438 2.4506-2.8736 3.2306-1.4765 0.93643-3.293 1.2382-5.0359 1.1-1.743-0.13822-3.4279-0.69031-5.045-1.355-2.6941-1.1073-5.2446-2.5333-7.8917-3.7488-2.647-1.2156-5.436-2.2303-8.3413-2.4397-4.7062-0.33926-9.4499 1.5321-12.945 4.7016-4.0686 3.6893-6.4105 8.8537-8.8148 13.792-1.6766 3.4434-3.4452 6.8648-5.7247 9.9425-2.2795 3.0777-5.1034 5.8181-8.5101 7.5682-4.1 2.1063-8.8599 2.6783-13.454 2.3032s-9.065-1.6516-13.448-3.08c-2.9552-0.96318-5.8982-2.0016-8.9492-2.5952-3.051-0.59359-6.2468-0.72797-9.2388 0.11382-2.2872 0.64349-4.3765 1.831-6.4602 2.9727-2.0837 1.1417-4.2219 2.2612-6.5474 2.7486-3.4042 0.71349-7.0117-9.1e-4 -10.117-1.5678s-5.7442-3.9425-8.0066-6.5844c-2.2242-2.5973-4.1218-5.4746-6.5068-7.9252-1.1925-1.2252-2.5084-2.342-3.9832-3.2072-1.4748-0.86513-3.1143-1.4745-4.8148-1.6526-2.1296-0.22313-4.2941 0.23709-6.2605 1.0846-1.9664 0.84753-3.7498 2.0713-5.42 3.4112-2.7761 2.2272-5.2789 4.7966-8.1952 6.8368-2.5494 1.7835-5.5125 3.1698-8.6238 3.169-2.6514-7.1e-4 -5.2214-1.0137-7.4643-2.4277-2.2429-1.414-4.2056-3.2218-6.1815-4.9899-2.7895-2.4962-5.7784-5.0114-9.4135-5.9048-2.0884-0.51327-4.2842-0.45587-6.4073-0.11335s-4.1898 0.96349-6.2521 1.5736c-11.104 3.2849-22.31 6.3071-33.735 8.1964-13.354 2.2083-27.25 2.8231-40.256-0.92639-8.1672-2.3547-15.793-6.3744-24.014-8.5363-7.9254-2.0843-16.218-2.3929-24.21-4.2054-8.4638-1.9196-16.467-5.4965-24.868-7.6762-10.177-2.6408-21.215-3.1376-31.027 0.63958-7.448 2.8671-13.777 8.0072-19.736 13.316-6.1021 5.4358-12.039 11.227-16.24 18.236-2.0744 3.461-3.7129 7.2227-4.4384 11.192-0.85873 4.6982-0.41544 9.5601 0.66732 14.212 0.8514 3.6577 2.0951 7.23 2.6534 10.944 1.1199 7.4495-0.63896 15.219-4.4605 21.711-1.8138 3.0812-4.1 5.9466-5.197 9.3496-1.3423 4.1639-0.76177 8.6815 0 12.99 1.0882 6.154 2.5754 12.384 5.9385 17.652 3.5951 5.6306 9.0677 9.7572 14.46 13.701 16.657 12.182 33.81 23.896 52.576 32.479 11.674 5.3392 24.067 9.5248 34.346 17.214 2.3387 1.7496 4.5538 3.6732 6.5278 5.8258 3.6821 4.0152 6.552 8.9826 7.1276 14.4 0.42563 4.0065-0.44628 8.1397-2.4486 11.636-1.8404 3.2135-4.5755 5.8432-7.5915 7.9919-3.016 2.1487-6.3239 3.8478-9.6228 5.5302-4.6592 2.3762-9.3412 4.741-14.257 6.5272-6.3874 2.321-13.197 3.647-19.983 3.2768-5.9401-0.32412-11.723-1.9285-17.517-3.2752-10.162-2.3618-20.514-3.9563-30.51-6.946-11.404-3.411-22.225-8.6097-32.379-14.822-10.002-6.1198-19.409-13.242-29.842-18.593-7.9577-4.0813-16.718-7.1369-25.653-6.7553-9.132 0.39007-17.729 4.3217-25.701 8.7933-5.638 3.1624-11.104 6.6309-16.367 10.385"/>
   <path d="m1147 158.75c-2.3513-1.5826-4.6032-3.313-6.7379-5.1776-16.171-14.125-24.643-34.909-31.996-55.081-4.0674-11.16-7.9643-22.385-12.375-33.414-3.8233-9.5602-8.1583-19.164-15.195-26.681-3.6633-3.9135-8.0925-7.231-13.179-8.9218-2.1241-0.70604-4.4004-1.1229-6.6051-0.73589-1.1023 0.19353-2.1748 0.58995-3.1056 1.2115-0.9307 0.62152-1.7162 1.4723-2.2084 2.4775-0.7553 1.5425-0.7849 3.3402-0.5981 5.0475s0.5742 3.3968 0.5981 5.1141c0.03 2.1375-0.5095 4.2582-1.3722 6.2141-0.8626 1.9559-2.0426 3.7573-3.3294 5.4643-2.7666 3.67-6.2503 7.0671-10.658 8.3673-4.2436 1.2517-8.7773 0.41756-13.173-0.08628-3.6503-0.41842-7.355-0.60058-10.992-0.07509-3.6365 0.5255-7.2195 1.7903-10.124 4.0406-2.6426 2.0474-4.6276 4.8237-6.3283 7.7017s-3.1578 5.8995-4.9706 8.7083c-2.3484 3.6387-5.2617 6.8718-7.9517 10.266-2.69 3.3939-5.1977 7.0252-6.5551 11.138-1.3893 4.2094-1.5095 8.7266-1.3688 13.157 0.14334 4.516 0.54402 9.0339 0.3048 13.546-0.23921 4.5119-1.1567 9.0819-3.4604 12.969-2.4525 4.1379-6.3045 7.2393-10.21 10.047-11.076 7.963-23.29 14.34-36.15 18.892-4.1028 1.4526-8.4048 2.7361-12.739 2.337-5.3737-0.49485-10.137-3.4949-15.168-5.4468-4.7707-1.851-10.018-2.7768-15.042-1.8051-5.7547 1.1131-10.844 4.6636-14.626 9.1415-2.8698 3.3978-5.1035 7.4426-5.7851 11.838-0.86926 5.605 0.81618 11.263 2.6144 16.643 1.5782 4.7212 3.2664 9.4374 4.0715 14.35 0.6935 4.2315 0.69454 8.7002-0.94546 12.662-1.5432 3.7282-4.4171 6.7378-7.42 9.4329s-6.2212 5.1949-8.7617 8.3298c-3.6142 4.46-5.6838 10.03-6.5936 15.698-0.84719 5.2785-0.75105 10.751-2.459 15.817-2.3031 6.8311-7.5943 12.14-12.074 17.788-3.9856 5.0248-7.4114 10.464-11.052 15.744-3.8057 5.5195-7.8591 10.884-11.209 16.692-3.4023 5.8982-6.046 12.196-8.7569 18.442-1.7695 4.0772-3.5992 8.1874-6.338 11.688-1.806 2.3083-3.9927 4.3221-6.4631 5.8991-3.1944 2.0392-6.8547 3.3358-10.616 3.8007-4.5097 0.55732-9.07-0.0668-13.612-0.21013-5.48-0.17297-11.13 0.33224-16.301-1.4914-2.969-1.0471-5.6511-2.8363-7.8962-5.0432-2.2451-2.207-4.0627-4.8255-5.5194-7.6165-3.8312-7.3404-5.1341-15.689-7.4414-23.641-1.2678-4.3696-2.9208-8.7675-5.9815-12.134-2.8446-3.1288-6.7328-5.1544-10.765-6.4298-4.0317-1.2753-8.2441-1.855-12.424-2.498-8.5796-1.3199-17.113-2.9273-25.623-4.6357-6.3538-1.2754-12.732-2.6179-18.761-4.9941-3.3884-1.3354-6.6448-2.9893-10.039-4.3111-3.3938-1.3217-6.9797-2.3156-10.621-2.245-3.4362 0.0666-6.7948 1.0803-9.9484 2.4466-3.1536 1.3663-6.1394 3.0858-9.1962 4.6568-6.2293 3.2013-12.789 5.7972-19.6 7.4316-11.124 2.6698-22.726 2.735-34.126 1.7906-15.969-1.3229-31.716-4.5888-47.646-6.3206-9.8594-1.0719-20.016-1.5294-29.523 1.2929-8.2692 2.4547-15.608 7.2576-22.846 11.95-8.6162 5.5868-17.282 11.11-26.245 16.122-7.3551 4.1131-15.111 7.9424-23.486 8.877-4.8975 0.54653-9.9075 0.0718-14.613-1.3927-4.9975-1.5555-9.6201-4.2103-13.674-7.5205-6.0618-4.9491-11.019-11.438-18.04-14.893-1.1803-0.58079-2.4059-1.0679-3.572-1.6768s-2.2849-1.3524-3.1334-2.3576c-1.2806-1.5171-1.856-3.5539-1.806-5.5386s0.68886-3.9212 1.6078-5.681c1.1118-2.1293 2.623-4.0184 4.0061-5.9823s2.6646-4.0597 3.2219-6.3963c0.55586-2.3308 0.36047-4.774 0-7.1428-0.94193-6.19-2.9756-12.152-4.8546-18.124-1.8063-5.7415-3.4777-11.526-5.3647-17.241-1.6234-4.9172-3.4324-9.8354-6.3-14.147-5.8156-8.7444-15.339-14.142-24.245-19.706-6.0891-3.804-12.169-7.885-19.091-9.7927-9.1798-2.5301-18.984-1.0091-28.404-2.3996-6.0576-0.89416-11.909-2.9962-17.292-5.9153-4.995-2.7089-9.5852-6.1071-14.519-8.9261-6.1473-3.5124-12.771-6.0945-19.295-8.8442-6.3798-2.6887-12.688-5.5489-18.893-8.6194-6.4892-3.2111-13.061-6.7129-20.261-7.4788-7.1793-0.76371-14.351 1.2708-21.152 3.6937-5.4438 1.9393-10.792 4.141-16.242 6.0631-4.2956 1.5149-8.7826 2.9276-12.218 5.9188-2.0749 1.8068-3.6758 4.1342-4.7263 6.6771s-1.5576 5.2972-1.5958 8.0482c-0.0626 4.5142 1.1121 8.939 2.0005 13.365 0.69631 3.4693 1.231 7.0096 2.6106 10.268 0.98403 2.3243 2.3766 4.4515 3.4845 6.7194 1.1079 2.2678 1.9408 4.7701 1.6816 7.2808-0.20574 1.9931-1.0917 3.8655-2.2339 5.5118-1.1422 1.6463-2.5402 3.0956-3.9025 4.5649-3.6128 3.8965-7.0811 8.0927-8.9465 13.068-1.7006 4.536-1.9608 9.6448-0.46762 14.253 1.5169 4.6819 4.7134 8.6306 8.1648 12.139 11.157 11.341 25.4 19.101 39.767 25.932 15.824 7.5238 32.088 14.134 47.62 22.243 6.7732 3.5363 13.443 7.3844 19.258 12.341 8.0568 6.8668 14.231 15.648 19.966 24.546 6.7807 10.52 13.185 21.482 22.201 30.163 10.149 9.7732 23.046 16.117 34.407 24.451 12.688 9.3078 23.429 21.08 36.245 30.21 8.5148 6.066 17.994 11.012 25.1 18.681 3.8918 4.2004 6.9477 9.0941 10.5 13.585 1.2474 1.5769 2.5658 3.1185 3.5124 4.8923s1.5025 3.839 1.0953 5.808c-0.34391 1.663-1.3558 3.1384-2.6341 4.2562-1.2784 1.1178-2.8138 1.9044-4.3902 2.5358-3.822 1.5309-7.9771 2.2033-12.091 2.0282-5.4149-0.23042-10.728-1.9021-16.146-1.7394-4.5644 0.13704-9.0181 1.5743-13.583 1.6769-6.0808 0.1367-11.968-2.0992-17.41-4.8164-7.8244-3.9071-15.091-8.8659-22.952-12.7-9.9208-4.8388-20.644-7.8178-30.735-12.292-9.2792-4.1146-17.951-9.4605-26.62-14.741-18.358-11.182-36.859-22.152-54.678-34.174-5.5428-3.7393-11.046-7.5958-17.07-10.496-15.294-7.3628-32.892-8.1098-49.007-13.44-11.617-3.8427-22.37-10.055-32.032-17.563-7.5688-5.8819-14.534-12.588-22.661-17.672-6.1693-3.8594-13.036-6.7569-20.255-7.6752-7.4754-0.95093-15.457 0.3823-21.519 4.8596-5.5995 4.1361-9.0752 10.487-13.828 15.574-4.7747 5.1105-10.903 8.9453-17.586 11.005"/>
   <path d="m-1.3229 406.14c8.6042-2.2633 16.745-6.2739 23.782-11.717 4.2242-3.2671 8.0945-7.0979 10.791-11.707 1.7858-3.0523 3.0444-6.4203 5.1446-9.2654 2.7643-3.7448 6.9251-6.3949 11.447-7.496 5.0577-1.2315 10.544-0.53666 15.179 1.8308 5.8965 3.0112 10.136 8.3986 14.901 12.995 6.6802 6.4442 14.574 11.461 22.193 16.762 8.6766 6.0368 17.197 12.569 27.066 16.354 7.524 2.8856 15.572 4.0699 23.394 6.007 11.04 2.7339 21.695 6.9966 31.605 12.577 10.631 5.9859 20.35 13.443 29.98 20.933 13.539 10.532 27.058 21.235 42.061 29.549 9.1525 5.0721 18.819 9.227 28.83 12.273 8.2643 2.5143 16.852 4.3107 24.458 8.405 8.6451 4.6534 15.503 12 21.787 19.544 7.7018 9.2451 14.793 18.979 21.864 28.715 6.4043 8.8172 12.811 17.663 18.228 27.119 6.119 10.683 10.977 22.226 12.932 34.381 1.5392 9.5693 1.2289 19.536-1.784 28.748-1.418 4.3357-3.4126 8.4573-5.4435 12.542-4.7721 9.598-9.7952 19.114-13.397 29.209-4.0909 11.466-6.2991 23.601-6.5097 35.773"/>
   <path d="m-1.3229 418.04c5.5124-4.5607 11.705-8.2976 18.31-11.049 6.4436-2.6838 13.234-4.4197 19.983-6.199 14.13-3.7247 28.835-7.7077 43.161-4.8263 8.747 1.7594 16.776 5.9875 24.583 10.306 9.7803 5.41 19.493 11.084 28.037 18.29 2.9276 2.4695 5.7873 5.1618 9.3309 6.6152 3.6076 1.4796 7.6112 1.5466 11.455 2.2039 6.1389 1.05 11.894 3.6169 17.678 5.928 6.7901 2.7134 13.856 5.1839 19.502 9.8312 6.6377 5.4641 10.682 13.417 16.463 19.781 5.9984 6.6021 13.73 11.35 20.422 17.248 5.1593 4.5474 9.8945 9.9108 16.266 12.499 4.4793 1.8196 9.4113 2.1074 14.241 2.3391 11.82 0.56727 24.033 1.0235 34.718 6.1107 4.7695 2.2708 9.0984 5.4174 12.903 9.0823 5.903 5.6865 10.513 12.555 15.037 19.39 4.1838 6.3216 8.3363 12.667 12.737 18.839 4.4662 6.2635 9.2084 12.381 12.743 19.214 6.2702 12.12 8.4434 25.875 10.645 39.342 0.6882 4.2106 1.3891 8.4356 1.4977 12.701 0.10858 4.265-0.39514 8.6021-2.036 12.54-1.9676 4.7223-5.4632 8.6426-9.1949 12.142-3.7317 3.4994-7.7702 6.6856-11.211 10.471-3.0416 3.346-5.5942 7.1474-7.4375 11.276-3.0096 6.7417-4.1077 14.27-7.6116 20.768-1.559 2.8914-3.5889 5.5454-6.0853 7.6804-2.4965 2.135-5.4673 3.7418-8.6636 4.4996-3.8052 0.90222-7.7761 0.58994-11.684 0.43455-3.9076-0.1554-7.9468-0.12466-11.55 1.3948-2.4368 1.0275-4.5476 2.6855-6.5873 4.3686-2.0397 1.6832-4.0624 3.4258-6.3981 4.6659-3.8053 2.0205-8.3315 2.5864-12.553 1.7245-4.55-0.92901-8.624-3.4107-12.411-6.0989-3.7867-2.6882-7.4217-5.6436-11.57-7.7314-7.3874-3.7182-15.967-4.444-24.207-3.7413-11.44 0.97553-22.812 4.6967-31.868 11.754-2.947 2.2966-5.6322 4.9289-7.9869 7.8296"/>
   <path d="m-2.8941 456.23c3.8865-4.1163 6.9595-8.9976 8.9911-14.282 1.8775-4.8833 2.909-10.172 5.7846-14.543 2.4641-3.7452 6.1472-6.5663 10.139-8.6074 3.9915-2.0411 8.3089-3.3552 12.62-4.5846 7.3146-2.0858 14.692-3.9595 22.146-5.4776 9.9213-2.0209 20.191-3.4074 30.141-1.5334 8.7115 1.6407 16.838 5.7459 23.915 11.085 9.4136 7.103 17.081 16.363 26.761 23.098 8.7336 6.0763 18.8 9.8888 28.306 14.667 7.5818 3.8113 14.847 8.2628 21.619 13.377 7.5551 5.7056 14.504 12.25 20.369 19.682 5.32 6.7415 9.7452 14.203 15.616 20.47 3.6269 3.8722 8.0153 7.3662 13.225 8.3692 3.6853 0.70951 7.4857 0.11742 11.177-0.56216 7.6826-1.4145 15.347-3.2122 23.155-3.4302 3.2643-0.0911 6.5723 0.10201 9.6967 1.052 3.1243 0.95003 6.0709 2.7069 8.0373 5.3141 1.8204 2.4136 2.7043 5.393 3.411 8.3325 0.70667 2.9394 1.284 5.9477 2.61 8.6645 1.4936 3.0602 3.8719 5.606 6.45 7.8306 4.6544 4.0163 10.115 7.1964 13.94 12.009 3.9271 4.9405 5.7849 11.164 7.5788 17.215 1.6639 5.6121 3.3504 11.239 4.278 17.018s1.0785 11.756-0.31803 17.44c-1.1702 4.7632-3.4973 9.3477-7.1936 12.572-2.6422 2.3046-5.8818 3.8359-9.2188 4.9113-3.337 1.0754-6.7945 1.7188-10.227 2.4341-11.548 2.4065-22.935 5.6602-33.889 10.04-14.513 5.803-28.195 13.55-42.766 19.207-10.459 4.0612-21.354 7.0371-31.489 11.852-15.594 7.4094-28.825 18.891-43.232 28.406-8.3721 5.5294-17.245 10.468-24.51 17.388-1.3443 1.2804-2.6282 2.6243-3.846 4.0256"/>
   <path d="m-0.79375 572.29c5.2698-3.6531 9.6293-8.609 12.581-14.302 2.1312-4.1108 3.5332-8.6008 4.0942-13.197 1.0234-8.3839-0.73962-16.83-2.4899-25.093-1.3119-6.1934-2.623-12.391-4.2822-18.5-1.2903-4.751-2.8034-9.5345-2.7538-14.457 0.055032-5.4648 2.0567-10.768 4.8737-15.451 5.1948-8.6358 13.035-15.324 20.979-21.526 4.6314-3.6163 9.4723-7.1894 15.091-8.9106 6.9902-2.1415 14.502-1.224 21.791-1.7813 6.062-0.4634 12.028-1.9642 17.666-4.2397 3.8676-1.561 7.5947-3.4875 11.57-4.7491 1.2942-0.41073 2.6266-0.75185 3.9843-0.77403 1.3576-0.0222 2.7535 0.29682 3.8468 1.1021 0.90564 0.66707 1.558 1.6308 2.0214 2.6557 0.46344 1.0249 0.75215 2.1183 1.0501 3.2029 0.86914 3.1634 1.8413 6.3416 1.9575 9.6202 0.0861 2.429-0.30106 4.8482-0.39983 7.2767-0.0988 2.4285 0.11804 4.9576 1.306 7.078 0.71765 1.281 1.7661 2.3605 2.9637 3.21 1.1976 0.84953 2.5429 1.4756 3.9308 1.955 5.8188 2.01 12.162 1.4378 18.301 1.8982 6.9187 0.51892 13.754 2.4035 19.861 5.6959 9.8336 5.3014 17.355 13.929 25.668 21.393 2.6935 2.4186 5.531 4.7786 7.4469 7.8501 2.5368 4.067 3.2258 9.0391 3.0984 13.831-0.054 2.0295-0.24327 4.0575-0.17388 6.0865 0.0694 2.029 0.4113 4.0873 1.3546 5.885 1.1736 2.2367 3.1794 3.9037 5.1752 5.4519 4.4392 3.4437 9.1826 6.6587 14.547 8.3294 4.5644 1.4215 9.6249 1.6441 14.063-0.13274 1.5338-0.61408 2.9946-1.4622 4.6177-1.7704 0.81157-0.15413 1.6606-0.16663 2.4552 0.0593s1.5315 0.70358 1.9867 1.3929c0.34218 0.51816 0.51503 1.1359 0.56193 1.755 0.0469 0.61917-0.0275 1.2421-0.14868 1.8511-0.24248 1.218-0.67392 2.4087-0.71468 3.6499-0.0496 1.5096 0.48775 2.9876 1.2388 4.2981 0.75103 1.3104 1.7136 2.4846 2.6084 3.7014 2.4807 3.3734 4.4546 7.0988 6.1062 10.947 2.2425 5.2247 3.9237 10.881 3.3354 16.536-0.39179 3.7656-1.7812 7.3757-3.6332 10.678-1.8519 3.3021-4.1624 6.3222-6.5206 9.2839-5.0113 6.2937-10.317 12.421-16.586 17.464-10.091 8.1185-22.26 13.114-33.859 18.875-13.187 6.5495-25.815 14.2-37.874 22.648-10.014 7.0147-19.633 14.574-29.26 22.111-3.9831 3.1183-8.0188 6.2641-12.632 8.3388-4.6807 2.1049-9.7872 3.0319-14.805 4.1097-17.76 3.8148-35.007 9.7095-52.654 14.016-7.6148 1.8583-15.321 3.423-23.128 4.1231-6.5449 0.58687-13.144 0.5628-19.685-0.0718"/>
  </g>
  <path d="m85.964 493.76c12.024-0.77874 24.164-0.15314 35.97 2.2563 4.4122 0.90046 8.8213 2.0668 12.792 4.1916 3.9703 2.1248 7.5036 5.2913 9.3951 9.3779 2.2161 4.788 1.9204 10.675-0.82976 15.177-1.7657 2.8908-4.4454 5.1662-7.4585 6.7139-3.0131 1.5477-6.3525 2.3931-9.7184 2.7737-9.4997 1.0742-19.039-1.4728-28.599-1.4002-5.7743 0.0439-11.492 1.0427-17.208 1.86-7.2233 1.0328-14.491 1.7796-21.782 2.0811-3.1991 0.13229-6.4216 0.1775-9.5832-0.32854-3.1616-0.50605-6.2816-1.5907-8.8273-3.5326-3.5568-2.7131-5.7057-6.8348-7.7187-10.83-2.7692-5.4957-5.5196-11.082-6.8413-17.093-0.16051-0.72986-0.29993-1.4678-0.32911-2.2146-0.02918-0.74673 0.05505-1.5061 0.32911-2.2013 0.41919-1.0634 1.2642-1.9208 2.2376-2.5199 0.97347-0.59911 2.0741-0.96021 3.1811-1.2449 6.8172-1.7529 13.99-0.75977 21.027-0.60672 11.355 0.24695 22.631-1.7265 33.964-2.4605z" stroke-opacity=".054975" stroke-width="2.1167"/>
  <path d="m-0.52917 608.54c11.034-1.0764 21.907-3.7811 32.159-7.9996 8.2355-3.3887 16.383-7.8238 25.285-8.0836 6.7968-0.19833 13.393 2.0758 19.822 4.2886 14.491 4.9871 29.163 9.8381 44.383 11.634 5.834 0.68862 11.792 0.93859 17.358 2.8152 1.5926 0.53688 3.1409 1.2036 4.7504 1.6874s3.3065 0.78288 4.9721 0.55833c2.3368-0.31504 4.487-1.6873 5.8588-3.6051 0.9379-1.3112 1.5254-2.8498 2.49-4.1414 0.48235-0.64582 1.064-1.23 1.7656-1.6268 0.70167-0.39674 1.5317-0.59583 2.3262-0.45972 0.65021 0.11139 1.2536 0.4433 1.7305 0.89915s0.83058 1.0316 1.0684 1.6469c0.47569 1.2306 0.49104 2.5872 0.42947 3.9051-0.19717 4.2202-1.133 8.4266-2.9532 12.239-2.0078 4.2055-5.0384 7.8439-8.3239 11.149-5.0979 5.1281-11.003 9.6312-17.816 12.054-6.3259 2.2498-13.152 2.6192-19.677 4.2011-6.7365 1.6331-13.084 4.5403-19.611 6.8725-12.018 4.2937-24.642 6.6361-36.81 10.484-5.1972 1.6437-10.311 3.5621-15.581 4.9573-5.2694 1.3951-10.746 2.2631-16.173 1.7495-5.1351-0.48602-10.089-2.193-15.214-2.772-4.0833-0.46132-8.2477-0.19529-12.239 0.78185" stroke-opacity=".054976" stroke-width="2.1167"/>
  <path d="m432.59 719.67c4.0739-1.3331 7.904-3.4073 11.247-6.0906 4.896-3.9303 8.7164-9.1177 13.845-12.739 4.2094-2.9717 9.1228-4.762 14.009-6.3983 4.8859-1.6363 9.8535-3.1711 14.333-5.7174 1.717-0.97598 3.3602-2.1025 4.7737-3.4819 1.4134-1.3794 2.5945-3.0212 3.296-4.8674 1.2288-3.2342 0.91179-6.8671 0.0149-10.209-0.89687-3.3415-2.3436-6.5093-3.3784-9.8107-1.9401-6.1894-2.4006-12.829-1.4076-19.238 1.132-7.307 4.1019-14.213 7.628-20.712 5.2613-9.6978 11.869-18.81 15.175-29.336 1.1204-3.5672 1.843-7.2463 2.8376-10.851 0.99459-3.6044 2.2851-7.1799 4.4154-10.253 3.1024-4.4753 7.8302-7.6293 12.874-9.6827 8.1587-3.3218 17.17-3.9597 25.973-3.6454 4.0662 0.14515 8.1343 0.48446 12.198 0.28876 4.0641-0.1957 8.172-0.95304 11.761-2.8697 3.54-1.8904 6.442-4.849 8.6178-8.2211s3.6554-7.1529 4.7546-11.012c1.327-4.6593 2.13-9.4984 4.0932-13.927 1.2178-2.7474 2.8868-5.357 3.394-8.3191 0.25362-1.4811 0.19722-3.0403-0.35534-4.4376-0.55257-1.3973-1.6359-2.6161-3.0387-3.1545-0.76658-0.29424-1.6058-0.38086-2.4227-0.29754-0.81688 0.0833-1.6121 0.33335-2.3523 0.68874-1.4804 0.71077-2.7254 1.8254-3.901 2.9721-5.5529 5.4159-10.233 12.018-17.109 15.608-6.6455 3.4695-14.519 3.6562-21.976 2.8852-13.985-1.4458-27.509-5.9546-41.482-7.5046-6.7545-0.74919-13.575-0.80207-20.317-1.66-6.7415-0.85793-13.524-2.5842-19.183-6.3464-7.5507-5.0194-12.37-13.105-17.452-20.613-4.0163-5.9335-8.4952-11.8-14.61-15.535-6.3479-3.8773-13.893-5.1258-21.156-6.7299-9.65-2.1313-19.157-5.0256-28.159-9.105-18.999-8.6104-35.734-22.792-45.78-41.073-1.287-2.342-2.4714-4.7656-3.1443-7.3519s-0.81271-5.3614-0.0214-7.914c1.0056-3.244 3.4509-5.9005 6.3115-7.7313 2.8606-1.8308 6.1299-2.9154 9.4047-3.8155 7.0377-1.9344 14.349-3.1261 20.95-6.241 6.0443-2.8524 11.243-7.2033 16.997-10.604 9.1397-5.4026 19.726-8.3547 30.343-8.37 3.798-5e-3 7.602 0.35665 11.389 0.0647 3.7868-0.292 7.6493-1.3064 10.576-3.7266 2.0399-1.6866 3.51-3.9556 4.8002-6.2667s2.4407-4.7131 3.9955-6.8552c2.8031-3.862 6.8124-6.7144 11.089-8.8314 4.2768-2.117 8.8509-3.5531 13.381-5.0542 5.3847-1.7843 10.751-3.676 16.295-4.8779 5.5439-1.2019 11.314-1.7002 16.893-0.67042 6.4695 1.1942 12.451 4.391 18.942 5.4608 6.052 0.99746 12.233 0.10008 18.322-0.64112 16.116-1.9619 32.713-2.7891 48.365 1.521 11.533 3.1758 22.436 9.1046 34.366 9.9831 5.4838 0.40378 10.98-0.2837 16.456-0.78263 5.4759-0.49893 11.05-0.80452 16.427 0.34525 8.3164 1.7783 15.482 6.8673 22.375 11.848 8.8423 6.3896 17.761 12.882 24.836 21.187 4.0671 4.774 7.4824 10.112 10.02 15.847 1.0098 2.2821 1.8845 4.6385 2.3581 7.0887 0.4736 2.4502 0.53644 5.0054-0.0641 7.4276-0.81245 3.2772-2.7955 6.1586-5.1142 8.6129-4.5642 4.8311-10.422 8.1921-15.918 11.929-7.085 4.8178-13.666 10.342-20.717 15.21-7.6598 5.288-15.871 9.7991-23.113 15.645-4.2487 3.4297-8.1288 7.2916-11.892 11.248-1.5474 1.6271-3.0884 3.2871-4.2476 5.2101-1.1592 1.923-1.9236 4.1494-1.7757 6.3899 0.16144 2.4457 1.4545 4.7897 3.4256 6.2467 1.5442 1.1414 3.4354 1.7331 5.3347 2.0161s3.8278 0.27559 5.7472 0.33015c10.296 0.29268 20.655 2.3772 30.82 0.71258 5.5733-0.9127 10.97-2.9624 15.679-6.0812 4.6737-3.0958 8.5969-7.1741 12.526-11.172 6.9214-7.0428 14.016-13.967 21.937-19.863 5.038-3.75 10.443-7.094 16.353-9.2184s12.371-2.9857 18.527-1.7412c1.8777 0.3796 3.74 0.95367 5.6557 0.94747 0.95782-3e-3 1.924-0.15595 2.8026-0.53754s1.6665-1.0015 2.168-1.8175c0.63546-1.034 0.77346-2.3044 0.68931-3.5151-0.0842-1.2107-0.37262-2.3975-0.52659-3.6013-0.39777-3.11 0.11204-6.2808 1.0393-9.2758 0.92727-2.995 2.2641-5.8439 3.565-8.6966 2.4685-5.4133 4.8447-10.919 8.2546-15.795 3.4099-4.8755 7.9916-9.1463 13.623-11.065 6.245-2.1273 13.08-1.1841 19.566 0.0185 13.078 2.4247 26.039 5.8188 39.315 6.6377 8.262 0.50962 16.708-0.0138 24.503-2.7976 7.5205-2.6855 14.154-7.3611 21.393-10.733 1.9455-0.90622 3.9399-1.7208 5.7934-2.8028 1.8535-1.082 3.583-2.4593 4.7433-4.2648 1.3163-2.0482 1.8215-4.6492 1.1599-6.9922-0.46162-1.6349-1.4513-3.0778-2.6035-4.3262-1.1521-1.2484-2.4729-2.3269-3.7368-3.462-5.6219-5.0488-10.181-11.323-12.981-18.341-2.8-7.0183-3.8104-14.781-2.6187-22.243 1.0632-6.6572 3.8804-13.033 8.1291-18.268 4.2487-5.2342 9.9228-9.3091 16.259-11.612 1.7559-0.63806 3.5657-1.1448 5.2488-1.9556s3.2651-1.9692 4.1881-3.5935c0.91519-1.6106 1.1057-3.5554 0.85837-5.3912-0.24734-1.8358-0.90401-3.5894-1.6-5.306-1.4535-3.5849-3.1222-7.1758-3.4422-11.031-0.32172-3.8751 0.74986-7.7323 2.1114-11.375 2.0816-5.5686 4.8757-10.909 6.1584-16.714 1.4926-6.7547 0.86202-13.777 1.3412-20.678 0.72486-10.44 4.0879-20.756 10.111-29.314 0.93366-1.3266 1.9387-2.6202 3.1739-3.6716 1.2353-1.0515 2.7225-1.8553 4.3302-2.0719 1.1363-0.15307 2.306-8e-3 3.3871 0.3744 1.0811 0.38207 2.0742 0.99721 2.9306 1.7596 1.698 1.5118 2.8323 3.563 3.6535 5.683 0.82116 2.12 1.3586 4.3377 2.0636 6.4991 1.4234 4.3637 3.5283 8.4863 6.0128 12.346 6.0822 9.4484 14.394 17.29 23.38 24.037 13.061 9.8052 27.603 17.431 41.299 26.327 12.115 7.8686 24.028 16.941 38.151 19.976 6.2208 1.3368 12.644 1.4362 19 1.138 15.296-0.71765 30.482-3.7207 44.9-8.8788" stroke-opacity=".054976" stroke-width="2.1167"/>
  <path d="m494.89 574.22c5.194-1.1636 10.466-2.8668 14.419-6.4318 1.4799-1.3348 2.7484-2.9168 3.6404-4.6989 0.89198-1.7821 1.4007-3.7675 1.3758-5.7602-0.0263-2.0986-0.64366-4.1705-1.655-6.0095-1.0113-1.839-2.4083-3.4507-3.9995-4.8191-3.1826-2.7368-7.0814-4.4826-10.96-6.0863-6.2241-2.5733-12.555-4.8792-18.847-7.28-3.511-1.3395-7.0275-2.7138-10.697-3.525-3.6693-0.81119-7.5324-1.0412-11.167-0.0864-4.7492 1.2477-8.7296 4.3851-12.968 6.8649-3.4418 2.0138-7.1314 3.6311-10.335 6.0054-1.6019 1.1872-3.0775 2.5653-4.2384 4.1863-1.1609 1.621-2.0004 3.4942-2.2754 5.469-0.4232 3.0393 0.50485 6.1258 1.888 8.865 3.3198 6.5746 9.1846 11.567 15.582 15.216 4.6282 2.6404 9.7185 4.6969 15.04 4.9596 6.6288 0.32723 13.03-2.1202 19.475-3.7025 5.1924-1.2747 10.505-1.998 15.722-3.1668z" stroke-opacity=".054975" stroke-width="2.1167"/>
  <path d="m478.09 373.06c-6.4399 4.321-12.98 8.5428-18.839 13.624-1.1944 1.036-2.3655 2.1116-3.6964 2.9652s-2.8501 1.483-4.4308 1.5183c-1.4079 0.0314-2.7918-0.40952-4.053-1.0362-1.2611-0.62668-2.4199-1.4372-3.6011-2.204-4.254-2.7613-8.8732-4.9905-13.752-6.3761-3.7659-1.0696-7.6642-1.6317-11.572-1.8657-2.4585-0.14722-4.9498-0.16319-7.3558 0.36283-2.406 0.52603-4.7402 1.6324-6.4006 3.4515-1.3603 1.4904-2.2053 3.3782-2.8525 5.2894s-1.1201 3.8817-1.8588 5.7594c-1.6544 4.2055-4.5862 7.8113-6.2637 12.008-1.6436 4.1116-2.0125 8.6004-2.4884 13.003-0.26923 2.4904-0.57862 4.9841-0.56483 7.489 0.0138 2.5049 0.36192 5.0405 1.3579 7.3389 1.1729 2.7067 3.1992 4.9753 5.5005 6.8208s4.885 3.3017 7.4599 4.7411c5.3732 3.0037 10.863 6.0096 16.877 7.3202 6.329 1.3792 12.925 0.81108 19.334 1.7566 4.6859 0.69141 9.3319 2.2413 13.087 5.1281 3.0172 2.3195 5.3495 5.4075 7.4511 8.5804 2.8295 4.2718 5.3112 8.7672 8.1747 13.016 2.8635 4.2491 6.1536 8.2904 10.291 11.313 4.858 3.5496 10.666 5.5425 16.462 7.154 7.5806 2.1074 15.332 3.6527 23.173 4.304 6.1441 0.51036 12.35 0.46913 18.451-0.41783 4.7535-0.69105 9.5149-1.9295 13.587-4.4769 3.9792-2.4891 7.1049-6.0954 10.357-9.4794 4.6519-4.8399 9.6964-9.3348 15.299-13.033 10.689-7.0569 23.069-11.017 35.231-15.032 13.325-4.3985 26.809-9.0678 38.225-17.227 8.8908-6.3547 16.221-14.613 24.448-21.807 4.652-4.068 9.7458-7.983 12.489-13.52 1.5275-3.0829 2.2383-6.5536 2.1403-9.9928s-0.99652-6.843-2.5238-9.9261c-2.4662-4.9783-6.4587-8.9969-10.145-13.154-2.5304-2.8537-4.95-5.8178-7.7267-8.4325-2.7767-2.6147-5.956-4.8931-9.5751-6.0967-5.612-1.8664-11.716-1.0074-17.577-0.21294-7.3227 0.99263-14.714 1.8552-22.088 1.3671-5.807-0.38435-11.522-1.6013-17.226-2.7569-14.625-2.963-29.348-5.5467-44.208-6.9011-7.7067-0.7024-15.447-1.0734-23.185-0.96422-9.5713 0.13503-19.243 1.0288-28.288 4.1623-10.566 3.6604-19.839 10.21-29.125 16.44z" stroke-opacity=".054975" stroke-width="2.1167"/>
  <g stroke-opacity=".054976" stroke-width="2.1167">
   <path d="m1147 293.69c-6.1211 2.3889-12.532 4.0341-19.047 4.8878-8.2335 1.079-16.7 0.91392-24.644 3.3301-9.3412 2.841-17.654 9.4812-21.66 18.385-1.5523 3.4496-2.4493 7.15-3.608 10.751s-2.6297 7.1904-5.1219 10.036c-3.0787 3.5154-7.496 5.6226-12.016 6.8098-4.5196 1.1872-9.2082 1.5405-13.846 2.112-3.5056 0.43198-7.0104 0.99209-10.542 0.98521-3.5322-7e-3 -7.141-0.61409-10.205-2.371-2.3271-1.3342-4.2433-3.27-6.0783-5.2266-1.8349-1.9566-3.6389-3.9755-5.8204-5.5363-0.9793-0.70067-2.0362-1.3071-3.1787-1.6876-1.1424-0.3805-2.3761-0.52871-3.5609-0.31394-1.2418 0.2251-2.3937 0.84319-3.3495 1.6673-0.9558 0.82415-1.7237 1.8491-2.3544 2.9423-1.256 2.1771-1.9824 4.6351-2.3062 7.1275-0.65287 5.0253 0.29793 10.11 1.3743 15.062 1.5221 7.0024 3.4142 14.18 7.8552 19.804 3.1545 3.9947 7.4187 6.9648 11.818 9.5256 5.55 3.2308 11.407 5.902 17.033 8.9976 13.109 7.2123 24.834 16.65 37.215 25.051 6.8614 4.6563 14.254 9.115 22.501 9.9836 6.2176 0.65486 12.447-0.78798 18.691-1.1046 10.809-0.54807 21.768 2.39 30.853 8.2718"/>
   <path d="m1147 313.53c-6.8589-0.0454-13.715-0.56303-20.502-1.548-3.268-0.47423-6.5342-1.0579-9.8359-1.1176-3.3018-0.0597-6.6835 0.43322-9.5936 1.9941-3.6135 1.9382-6.3134 5.5674-6.9642 9.6159-0.3526 2.1934-0.1249 4.4475 0.3714 6.6129 0.4962 2.1654 1.2564 4.2597 1.9823 6.3593 2.0113 5.8173 3.7906 11.837 3.7126 17.991-0.067 5.2786-1.5033 10.455-3.3971 15.383s-4.2492 9.6646-6.262 14.545c-0.6298 1.527-1.2297 3.0812-1.5055 4.7098-0.2758 1.6286-0.2102 3.352 0.4548 4.864 0.857 1.9484 2.6418 3.3763 4.6039 4.2012 1.9622 0.82487 4.1055 1.1094 6.2263 1.2905 12.54 1.0707 25.163-1.2026 37.727-0.46566 0.9955 0.0584 1.99 0.13567 2.9826 0.23178"/>
   <path d="m570.18 718.34c0.65583-4.4272 1.1402-8.8799 1.4516-13.345 0.57612-8.2591 0.51811-16.795-2.5145-24.498-2.1063-5.3506-5.558-10.06-9.2252-14.489-3.6672-4.429-7.5971-8.6581-10.867-13.388-6.8968-9.9773-10.641-22.002-11.25-34.115-0.35661-7.0969 0.33003-14.21 1.3956-21.235 0.52587-3.4672 1.153-6.9515 2.4807-10.197 1.3277-3.2458 3.4157-6.2694 6.3571-8.1788 1.9491-1.2653 4.2032-2.0002 6.4871-2.4284 2.284-0.42821 4.6114-0.56158 6.9306-0.70691 8.9623-0.56162 18.054-1.3071 26.848 0.51041 8.396 1.7352 16.401 5.7835 24.974 5.7848 6.047 9.4e-4 12.085-2.1195 16.758-5.9578 5.2164-4.2849 8.6145-10.58 9.8922-17.208 0.94429-4.8989 0.78334-9.9742-0.12948-14.879-0.5606-3.0123-1.4009-5.9688-1.9087-8.9904-0.50782-3.0216-0.67456-6.159 0.10807-9.1213 0.65798-2.4906 1.9786-4.7882 3.7128-6.693 1.7342-1.9048 3.8747-3.4222 6.1963-4.5384 6.804-3.2713 14.93-2.9832 22.073-0.54015 6.9309 2.3704 13.089 6.6143 19.966 9.1369 5.426 1.9903 11.362 2.8717 17.033 1.7572 7.5162-1.4772 14.24-6.6018 17.604-13.483 1.3467-2.7549 2.1804-5.7595 3.7691-8.3823 0.79436-1.3114 1.7827-2.5235 3.0177-3.4321 1.235-0.90862 2.73-1.5012 4.2631-1.5184 1.1185-0.0125 2.2211 0.27662 3.2686 0.66894s2.0529 0.88835 3.0878 1.3127c4.3072 1.7662 9.0577 2.2558 13.706 1.994 4.6478-0.26186 9.2227-1.2511 13.746-2.3534 13.63-3.3217 27.041-7.7178 39.648-13.871 13.456-6.5669 26.114-15.284 35.411-27.02 6.8509-8.649 11.699-18.689 17.82-27.87 4.5308-6.7959 9.9053-13.247 16.9-17.464 7.1767-4.3276 15.896-6.0625 24.17-4.7266 3.1293 0.50529 6.1765 1.4304 9.2938 2.0048 3.1173 0.57441 6.3821 0.78714 9.4184-0.12329 3.0789-0.92322 5.6985-2.9254 8.2733-4.8496 2.5748-1.9241 5.2717-3.8524 8.4013-4.5853 2.958-0.69274 6.048-0.2579 9.0593 0.14409 10.029 1.3388 20.529 2.4234 29.025 7.9179 6.3451 4.1034 10.987 10.315 15.357 16.48 7.3358 10.35 14.372 21.035 23.42 29.928 4.7911 4.7091 10.145 8.9159 14.158 14.304 3.0697 4.1224 5.29 8.89 6.3522 13.919 1.0622 5.0288 0.9552 10.315-0.4251 15.266-1.4703 5.2737-4.3166 10.037-6.9506 14.836-4.9241 8.9725-9.2037 18.305-12.661 27.938-4.209 11.728-7.1915 23.881-9.1582 36.185-0.9071 5.6752-1.602 11.398-3.0187 16.968-1.4166 5.57-3.5985 11.037-7.1772 15.534-4.4549 5.5982-10.763 9.3475-16.274 13.909-1.8408 1.5234-3.6273 3.1776-4.844 5.234-0.60834 1.0282-1.0671 2.1516-1.2842 3.3264-0.21701 1.1748-0.18763 2.4024 0.152 3.5478 0.42463 1.4321 1.3202 2.6939 2.4093 3.7161s2.3693 1.8198 3.6845 2.5277c2.4133 1.299 4.9676 2.3161 7.4147 3.5501 2.4471 1.234 4.8213 2.7148 6.6363 4.7683 0.88254 0.99852 1.6261 2.1302 2.1062 3.3733 0.4801 1.2432 0.6906 2.6012 0.51777 3.9226-0.18226 1.3935-0.7857 2.7128-1.6202 3.8435-0.83454 1.1307-1.8948 2.0807-3.0382 2.8977-2.2868 1.634-4.9018 2.748-7.2757 4.2528-1.7159 1.0878-3.2974 2.3745-4.9903 3.4978-1.6929 1.1233-3.5332 2.0947-5.5336 2.4496-1.7041 0.30236-3.4815 0.14132-5.1216-0.4114s-3.1424-1.4919-4.396-2.6852c-2.0165-1.9197-3.3564-4.4394-4.4396-7.0042-1.0832-2.5648-1.9472-5.2256-3.1984-7.7127-2.2692-4.5109-5.7296-8.2959-9.2036-11.96-6.4124-6.7642-13.064-13.37-20.637-18.803-9.0724-6.508-19.494-11.279-30.51-13.097-11.9-1.9644-24.082-0.46736-36.126-1.0985-9.3415-0.48952-18.562-2.2574-27.76-3.9635-2.7671-0.51328-5.5684-1.0235-8.3773-0.85066-2.809 0.17288-5.6703 1.1006-7.654 3.0969-1.4258 1.4349-2.308 3.3176-3.0104 5.2146-0.70232 1.897-1.2564 3.8569-2.1607 5.6664-1.6841 3.3698-4.6022 6.1181-8.092 7.537-2.723 1.1071-5.7353 1.4065-8.6603 1.1159s-5.7711-1.1552-8.4786-2.2998c-7.0223-2.9684-13.085-7.7602-19.33-12.134-4.9826-3.4895-10.39-6.8346-16.445-7.4122-3.6153-0.34488-7.2448 0.32452-10.798 1.0774-3.5528 0.75289-7.1229 1.5966-10.755 1.6054-5.9062 0.0143-11.612-2.1861-16.803-5.0019-7.46-4.0461-14.169-9.4047-21.773-13.172-5.395-2.6725-11.32-4.5316-17.339-4.3816-3.7925 0.0945-7.5815 1.0014-10.93 2.7854-1.3536 0.72128-2.6516 1.6-3.6237 2.7863-0.97213 1.1864-1.5949 2.7135-1.4652 4.2418 0.10099 1.1896 0.64457 2.3047 1.342 3.2738 0.69741 0.96905 1.5491 1.8144 2.3609 2.69 2.3802 2.5672 4.4358 5.417 6.7485 8.0452 2.3127 2.6281 4.9396 5.0715 8.114 6.5475 3.9754 1.8484 8.4902 2.0478 12.752 3.0779 6.0738 1.4683 11.635 4.6432 16.524 8.5349 4.6142 3.6728 8.7076 8.0093 13.617 11.277 3.6496 2.4291 7.7618 4.2461 12.102 4.8655 6.4344 0.91832 12.917-0.81276 19.401-1.274 8.2369-0.586 16.616 0.92365 24.125 4.3602 9.3562 4.2821 17.116 11.353 25.846 16.801 7.2629 4.5325 15.176 7.927 22.577 12.23 6.6366 3.8591 12.848 8.4452 18.513 13.627 8.1964 7.4978 15.245 16.248 20.825 25.854"/>
  </g>
  <path d="m630.47 632.48c0.56016-5.3116 0.0581-10.69-0.9194-15.94-0.68632-3.6866-1.653-7.4323-3.8561-10.467-1.7358-2.3908-4.1589-4.2149-6.7588-5.6183-2.5999-1.4034-5.39-2.4132-8.1647-3.4282-3.2216-1.1786-6.4539-2.3757-9.8166-3.0545-3.3626-0.67881-6.8912-0.8224-10.195 0.10169-4.7885 1.3394-8.7453 4.8316-11.607 8.8979-2.9678 4.2172-4.9436 9.2485-4.933 14.405 0.01 4.832 1.756 9.5457 4.3272 13.637 3.9587 6.299 9.9171 11.297 16.757 14.223 5.5093 2.3573 11.568 3.3879 17.553 3.0966 2.5687-0.125 5.1451-0.49452 7.5631-1.3704s4.6793-2.28 6.3336-4.249c2.3699-2.8208 3.3304-6.5701 3.7168-10.234z" stroke-opacity=".054975" stroke-width="2.1167"/>
  <path d="m837.41 718.34c-1.8972-9.1832-7.5757-17.525-15.423-22.658-6.8973-4.5114-15.554-6.5248-23.603-4.7522-4.002 0.88138-7.7456 2.641-11.503 4.2765s-7.6295 3.1755-11.708 3.5735c-4.7556 0.46407-9.5136-0.64892-14.128-1.8889-4.9901-1.341-9.9375-2.8403-14.947-4.1068-3.424-0.86566-6.8904-1.6244-10.413-1.8789-3.5225-0.25453-7.1178 8e-3 -10.462 1.1418-2.4639 0.83538-4.7995 2.1414-7.3783 2.4852-3.242 0.43233-6.4779-0.70554-9.4734-2.0186s-5.9718-2.8403-9.2162-3.2545c-4.5545-0.5814-9.0494 1.0867-13.465 2.344-10.5 2.9895-21.922 3.6992-32.243 0.14153-5.5298-1.9062-10.729-5.0131-16.537-5.7088-5.7567-0.68959-11.505 1.0677-16.967 3.0137-2.9199 1.0404-5.8453 2.1547-8.4376 3.8543-2.5922 1.6996-4.8559 4.0462-5.9449 6.9483-0.88072 2.347-0.95179 4.9164-0.83671 7.4205 0.11508 2.5041 0.40555 5.0121 0.2083 7.511-0.0948 1.2014-0.30246 2.3938-0.61928 3.5566" stroke-opacity=".054976" stroke-width="2.1167"/>
  <path d="m911.16 547.67c2.7972 1.3669 5.4085 3.0922 8.2155 4.4387 2.807 1.3466 5.8992 2.3182 8.9989 2.0286 3.8083-0.35587 7.2034-2.5713 10.019-5.1596 2.8161-2.5883 5.2244-5.6031 8.1239-8.0976 2.5802-2.2198 5.511-3.9945 8.1779-6.1094 2.6669-2.1149 5.1305-4.6703 6.3111-7.8627 1.3567-3.6687 0.87932-7.7524 1.6811-11.581 0.97185-4.6404 3.7959-8.7823 4.4262-13.481 0.62598-4.6673-0.97557-9.3067-1.65-13.967-0.44113-3.0483-0.51945-6.2617-2.0088-8.9577-1.131-2.0473-2.9984-3.6129-5.0506-4.7351-2.0522-1.1222-4.2984-1.8366-6.5372-2.5136-6.8478-2.0704-14.008-3.8702-21.092-2.874-4.6323 0.65137-9.045 2.4882-13.031 4.9374-5.8992 3.6252-10.931 8.6084-14.797 14.353-3.1164 4.6308-5.5133 9.7802-9.2296 13.945-3.9865 4.4675-9.3234 7.605-13.113 12.241-1.0986 1.3438-2.0635 2.8166-2.6706 4.4426-0.60715 1.626-0.84311 3.4169-0.48292 5.1148 0.48343 2.2788 1.9913 4.2193 3.7276 5.7724 1.7363 1.5531 3.725 2.7955 5.5448 4.2498 2.4173 1.9316 4.5324 4.2334 7.0516 6.0302 5.1822 3.6962 11.666 4.9918 17.385 7.7865z" stroke-opacity=".054975" stroke-width="2.1167"/>
  <path d="m899.52 572.25c10.083 2.4759 20.058 5.9406 30.434 6.2941 4.6445 0.15822 9.383-0.33519 13.666-2.1398 3.849-1.622 7.1915-4.2389 10.321-7.0047 6.5406-5.7799 12.405-12.385 16.899-19.868 5.0273-8.3724 8.253-17.677 12.27-26.578 3.6006-7.9777 7.8758-15.724 10.171-24.17 0.85338-3.1399 1.4274-6.3774 1.3805-9.6308-0.064-4.4462-1.2853-8.806-2.9238-12.94-1.6385-4.1338-3.6959-8.0866-5.5294-12.138-3.8346-8.4727-6.6877-17.371-10.706-25.759-2.2745-4.7474-4.9333-9.3409-8.2984-13.389-1.848-2.2231-3.9672-4.319-6.6057-5.5004-2.1475-0.9616-4.5788-1.2686-6.9025-0.8985-2.3237 0.37007-4.5326 1.4124-6.3141 2.9495-2.8652 2.4722-4.504 6.0363-6.7409 9.0888-3.1042 4.236-7.3509 7.469-11.502 10.686-2.2689 1.7586-4.5432 3.5412-7.087 4.8714s-5.4036 2.196-8.2662 1.9815c-2.1173-0.15865-4.1892-0.91723-5.8955-2.1808-1.7063-1.2636-3.0392-3.03-3.7656-5.0251-0.53786-1.4771-0.74341-3.0502-0.99134-4.6025-0.24792-1.5523-0.54943-3.1214-1.257-4.5252-0.96963-1.9237-2.6755-3.4328-4.6374-4.3225s-4.1662-1.1816-6.3138-1.0117c-3.7873 0.29962-7.3428 1.9866-10.501 4.0975-4.906 3.2785-9.1076 7.6967-11.762 12.966-2.0807 4.1302-3.1851 8.7208-3.4554 13.338-0.35363 6.0387 0.67772 12.235-0.927 18.067-1.3076 4.7525-4.2681 8.8659-7.3899 12.68-4.795 5.8593-10.205 11.367-16.792 15.1-5.5673 3.1556-11.803 4.9487-17.509 7.8461-3.0753 1.5616-5.9851 3.4383-9.0922 4.9356s-6.4835 2.6203-9.9313 2.5298c-2.3282-0.0611-4.6029-0.67147-6.9079-1.0049-2.305-0.33347-4.7564-0.36808-6.8507 0.6509-1.8361 0.89336-3.2223 2.5177-4.2736 4.2683-1.0512 1.7505-1.8166 3.6556-2.7616 5.4656-2.8702 5.4975-7.3216 9.9887-11.875 14.2-5.2659 4.8701-10.761 9.49-16.412 13.907-6.0045 4.6938-12.215 9.1854-17.526 14.652-0.64502 0.66388-1.286 1.3558-1.6851 2.191-0.19952 0.4176-0.33555 0.86861-0.36832 1.3303-0.0328 0.46165 0.0403 0.93432 0.23968 1.352 0.19051 0.39899 0.49254 0.7401 0.84916 1.0014 0.35661 0.26136 0.76674 0.44483 1.1922 0.56512 0.85091 0.24059 1.7502 0.23059 2.6341 0.20373 8.5394-0.25949 16.981-1.918 25.511-2.3949 13.998-0.78256 28.121 1.6215 42.016-0.24315 8.009-1.0747 15.762-3.5471 23.701-5.0516 9.6796-1.8342 19.586-2.2186 29.434-1.9324 13.142 0.38192 26.269 1.9554 39.037 5.0905z" stroke-opacity=".054975" stroke-width="2.1167"/>
 </g>
</svg>
