<?xml version="1.0" standalone="no"?>
<!DOCTYPE svg PUBLIC "-//W3C//DTD SVG 20010904//EN"
 "http://www.w3.org/TR/2001/REC-SVG-20010904/DTD/svg10.dtd">
<svg version="1.0" xmlns="http://www.w3.org/2000/svg"
 width="700.000000pt" height="700.000000pt" viewBox="0 0 700.000000 700.000000"
 preserveAspectRatio="xMidYMid meet">
<metadata>
Created by potrace 1.14, written by Peter Selinger 2001-2017
</metadata>
<g transform="translate(0.000000,700.000000) scale(0.100000,-0.100000)"
fill="#000000" stroke="none">
<path d="M4118 6995 c-2 -1 -32 -5 -68 -8 -506 -45 -1037 -266 -1442 -599
-370 -307 -639 -676 -812 -1118 -43 -110 -108 -326 -121 -400 -3 -19 -10 -53
-15 -75 -5 -22 -11 -64 -15 -94 -4 -30 -9 -63 -11 -75 -15 -77 -18 -448 -18
-2416 l-1 -2205 808 -3 807 -2 1 2182 c0 1201 2 2206 4 2235 2 29 13 91 25
139 74 313 268 563 548 707 80 41 190 82 252 93 14 3 31 7 39 10 27 9 147 18
228 17 179 -3 347 -47 503 -130 47 -25 87 -48 90 -52 3 -3 30 -25 61 -49 319
-242 464 -668 375 -1102 -13 -60 -59 -179 -100 -256 -171 -321 -482 -524 -856
-560 -14 -1 -222 -2 -463 -3 l-437 -1 2 -808 3 -807 440 1 c393 0 621 6 680
18 11 2 43 7 70 10 43 6 87 13 170 30 11 3 49 12 85 21 36 8 72 17 81 20 9 2
64 19 123 39 498 167 945 483 1270 900 294 377 474 793 547 1266 24 150 34
519 18 645 -67 528 -220 927 -513 1330 -28 39 -53 72 -56 75 -3 3 -37 43 -77
90 -75 90 -212 226 -302 300 -29 25 -59 50 -65 55 -81 73 -292 208 -461 295
-274 141 -546 223 -910 275 -42 6 -481 15 -487 10z"/>
<path d="M4215 5109 c-22 -4 -56 -10 -75 -13 -128 -20 -284 -103 -392 -208
-170 -166 -251 -368 -243 -608 6 -208 76 -376 220 -529 143 -153 337 -239 550
-246 338 -12 624 163 764 466 243 527 -130 1124 -714 1143 -38 1 -88 -1 -110
-5z"/>
<path d="M0 2422 l0 -807 683 1 c375 1 684 2 687 3 4 1 4 1486 1 1594 -1 16
-41 17 -686 17 l-685 0 0 -808z"/>
</g>
</svg>
